<?xml version="1.0" encoding="UTF-8"?>
<svg version="1.1" xmlns="http://www.w3.org/2000/svg" width="300" height="300">
<path d="M0 0 C19.69133604 15.10037848 29.45100259 39.31601694 37.28125 62.1328125 C37.61801758 63.10879395 37.95478516 64.08477539 38.30175781 65.09033203 C43.84765357 81.34883481 48.48681628 97.83049339 53.05789185 114.38256836 C65.33928365 160.02034174 65.33928365 160.02034174 84.28125 203.1328125 C84.76980469 204.09703125 85.25835937 205.06125 85.76171875 206.0546875 C91.83152744 217.82025504 99.70627681 227.9693487 108.90258789 237.42700195 C113.83658029 242.52730021 117.01752031 246.74838123 117.28125 254.1328125 C115.69286066 257.70668852 114.56490642 258.94370822 111.28125 261.1328125 C99.25208566 262.68612802 91.52767416 258.51698714 82.171875 251.4609375 C59.66785206 233.33607578 44.52142579 210.1160461 30.15625 185.3828125 C24.07153649 174.92543415 17.87096814 164.32899296 9.4609375 155.55078125 C8.28125 154.1328125 8.28125 154.1328125 8.28125 152.1328125 C7.70117188 151.87113281 7.12109375 151.60945312 6.5234375 151.33984375 C4.15636874 150.06558548 2.42382803 148.59059983 0.40625 146.8203125 C-12.1574088 137.13413685 -26.46644174 136.70272619 -41.71875 138.1328125 C-57.50572155 140.92260997 -68.74209476 151.51895523 -77.68261719 164.11914062 C-82.89060211 171.6612038 -87.47401013 179.58768765 -92.13916016 187.47119141 C-103.18819918 206.08890754 -114.6714956 223.4986917 -129.71875 239.1328125 C-130.36972656 239.84695313 -131.02070313 240.56109375 -131.69140625 241.296875 C-140.78813622 250.99232817 -153.65288523 261.38443486 -167.31640625 262.2265625 C-171.24794347 262.07313666 -173.38652434 261.2848749 -176.71875 259.1328125 C-178.979408 255.39403196 -178.83521053 253.63192905 -177.84375 249.3828125 C-175.5403984 244.00485131 -171.76046554 239.32040737 -167.71875 235.1328125 C-167.05875 235.1328125 -166.39875 235.1328125 -165.71875 235.1328125 C-165.47125 234.56949219 -165.22375 234.00617188 -164.96875 233.42578125 C-163.51009545 230.75006182 -161.73144058 228.73474803 -159.71875 226.4453125 C-132.8928825 194.02175194 -122.27958983 148.32706649 -111.65625 108.4453125 C-91.12990488 31.42179363 -91.12990488 31.42179363 -70.71875 9.1328125 C-70.09484375 8.42898437 -69.4709375 7.72515625 -68.828125 7 C-50.24789607 -12.86422849 -22.28339446 -15.30382551 0 0 Z " fill="#618ABF" transform="translate(180.71875,23.8671875)"/>
<path d="M0 0 C2.63604732 0.73223537 4.87412958 1.15529537 7.5625 1.4375 C10.85670136 1.86952641 12.55179838 2.41731451 15.375 3.9375 C16.035 3.6075 16.695 3.2775 17.375 2.9375 C22.375 7.9375 22.375 7.9375 22.375 10.9375 C24.355 11.5975 26.335 12.2575 28.375 12.9375 C28.375 14.2575 28.375 15.5775 28.375 16.9375 C29.550625 17.06125 29.550625 17.06125 30.75 17.1875 C33.375 17.9375 33.375 17.9375 34.6875 20 C35.0278125 20.9590625 35.0278125 20.9590625 35.375 21.9375 C36.365 21.9375 37.355 21.9375 38.375 21.9375 C38.375 22.5975 38.375 23.2575 38.375 23.9375 C39.035 24.2675 39.695 24.5975 40.375 24.9375 C40.5 30.6875 40.5 30.6875 39.375 32.9375 C41.025 33.2675 42.675 33.5975 44.375 33.9375 C44.4575 35.05125 44.54 36.165 44.625 37.3125 C44.95599281 40.95213632 44.95599281 40.95213632 47.25 42.3125 C47.95125 42.51875 48.6525 42.725 49.375 42.9375 C50.365 43.2675 51.355 43.5975 52.375 43.9375 C52.375 45.5875 52.375 47.2375 52.375 48.9375 C53.32375 49.185 54.2725 49.4325 55.25 49.6875 C58.375 50.9375 58.375 50.9375 59.5625 52.65625 C60.55904032 55.4542286 60.57055702 57.72410501 60.5 60.6875 C60.48195312 61.67234375 60.46390625 62.6571875 60.4453125 63.671875 C60.42210937 64.41953125 60.39890625 65.1671875 60.375 65.9375 C61.035 65.9375 61.695 65.9375 62.375 65.9375 C64.375 65.9375 66.375 65.9375 68.375 65.9375 C68.375 66.5975 68.375 67.2575 68.375 67.9375 C69.035 68.2675 69.695 68.5975 70.375 68.9375 C70.21 69.700625 70.045 70.46375 69.875 71.25 C69.28354604 73.97346236 69.28354604 73.97346236 69.375 76.9375 C69.375 78.2575 69.375 79.5775 69.375 80.9375 C70.365 80.6075 71.355 80.2775 72.375 79.9375 C74.4375 80.9375 74.4375 80.9375 76.375 82.9375 C77.625 86.625 77.625 86.625 78.375 89.9375 C79.365 89.6075 80.355 89.2775 81.375 88.9375 C83.375 94.5625 83.375 94.5625 83.375 97.9375 C85.85 97.4425 85.85 97.4425 88.375 96.9375 C88.705 97.5975 89.035 98.2575 89.375 98.9375 C90.365 99.5975 91.355 100.2575 92.375 100.9375 C92.045 102.5875 91.715 104.2375 91.375 105.9375 C92.365 105.9375 93.355 105.9375 94.375 105.9375 C94.375 106.5975 94.375 107.2575 94.375 107.9375 C95.365 107.9375 96.355 107.9375 97.375 107.9375 C97.705 107.2775 98.035 106.6175 98.375 105.9375 C99.375 106.9375 99.375 106.9375 99.4375 110 C99.416875 110.969375 99.39625 111.93875 99.375 112.9375 C100.303125 112.9375 101.23125 112.9375 102.1875 112.9375 C104.25 112.9375 106.3125 112.9375 108.375 112.9375 C109.035 113.5975 109.695 114.2575 110.375 114.9375 C110 117.0625 110 117.0625 109.375 118.9375 C112.015 118.9375 114.655 118.9375 117.375 118.9375 C117.705 120.2575 118.035 121.5775 118.375 122.9375 C120.355 122.9375 122.335 122.9375 124.375 122.9375 C124.705 121.9475 125.035 120.9575 125.375 119.9375 C126.695 120.2675 128.015 120.5975 129.375 120.9375 C129.705 118.9575 130.035 116.9775 130.375 114.9375 C129.75109375 114.70289063 129.1271875 114.46828125 128.484375 114.2265625 C125.77244059 112.56926925 125.48524003 111.3233401 124.625 108.3125 C124.38265625 107.49523437 124.1403125 106.67796875 123.890625 105.8359375 C123.72046875 105.20945312 123.5503125 104.58296875 123.375 103.9375 C122.59125 103.855 121.8075 103.7725 121 103.6875 C118.375 102.9375 118.375 102.9375 117.125 101.0625 C116.52419925 99.36023121 115.94584854 97.65004562 115.375 95.9375 C114.055 96.2675 112.735 96.5975 111.375 96.9375 C108.96685923 93.42562804 108.00870592 91.21093092 108.375 86.9375 C112.15779119 88.45061647 112.15779119 88.45061647 113.18359375 90.75 C114.78887247 93.697397 116.90672135 95.15079251 119.5625 97.1875 C132.92479528 107.9194222 132.92479528 107.9194222 134.36328125 116.890625 C134.38105189 119.99456324 133.39389283 121.64013919 131.375 123.9375 C126.66326499 127.07865667 121.8891961 126.475807 116.375 125.9375 C86.91770176 118.36960875 65.3744338 80.83451285 51.03027344 56.67236328 C49.76592288 54.51318994 48.50666156 52.35115636 47.25 50.1875 C41.16528649 39.73012165 34.96471814 29.13368046 26.5546875 20.35546875 C25.375 18.9375 25.375 18.9375 25.375 16.9375 C24.79492188 16.67582031 24.21484375 16.41414063 23.6171875 16.14453125 C21.25011874 14.87027298 19.51757803 13.39528733 17.5 11.625 C4.9363412 1.93882435 -9.37269174 1.50741369 -24.625 2.9375 C-40.41197155 5.72729747 -51.64834476 16.32364273 -60.58886719 28.92382812 C-65.79685211 36.4658913 -70.38026013 44.39237515 -75.04541016 52.27587891 C-86.09444918 70.89359504 -97.5777456 88.3033792 -112.625 103.9375 C-113.27597656 104.65164063 -113.92695312 105.36578125 -114.59765625 106.1015625 C-120.61580455 112.51580973 -132.42249879 123.76114403 -141.3125 124.0625 C-142.405625 124.02125 -143.49875 123.98 -144.625 123.9375 C-144.13 122.9475 -144.13 122.9475 -143.625 121.9375 C-142.965 121.9375 -142.305 121.9375 -141.625 121.9375 C-141.13 120.9475 -141.13 120.9475 -140.625 119.9375 C-139.965 118.9475 -139.305 117.9575 -138.625 116.9375 C-137.8 116.81375 -136.975 116.69 -136.125 116.5625 C-134.8875 116.253125 -134.8875 116.253125 -133.625 115.9375 C-132.25033375 113.46113988 -132.25033375 113.46113988 -131.625 110.9375 C-129.975 111.5975 -128.325 112.2575 -126.625 112.9375 C-126.295 112.2775 -125.965 111.6175 -125.625 110.9375 C-124.965 109.9475 -124.305 108.9575 -123.625 107.9375 C-122.965 107.9375 -122.305 107.9375 -121.625 107.9375 C-120.234883 105.02873087 -120.234883 105.02873087 -119.625 101.9375 C-119.295 101.2775 -118.965 100.6175 -118.625 99.9375 C-117.635 99.9375 -116.645 99.9375 -115.625 99.9375 C-115.625 99.2775 -115.625 98.6175 -115.625 97.9375 C-114.965 97.9375 -114.305 97.9375 -113.625 97.9375 C-113.295 97.2775 -112.965 96.6175 -112.625 95.9375 C-111.635 96.2675 -110.645 96.5975 -109.625 96.9375 C-109.625 94.2975 -109.625 91.6575 -109.625 88.9375 C-108.531875 88.69 -107.43875 88.4425 -106.3125 88.1875 C-102.55009112 86.91210716 -101.36403483 86.41556966 -99.625 82.9375 C-99.625 81.6175 -99.625 80.2975 -99.625 78.9375 C-97.645 78.4425 -97.645 78.4425 -95.625 77.9375 C-95.625 76.2875 -95.625 74.6375 -95.625 72.9375 C-94.305 73.2675 -92.985 73.5975 -91.625 73.9375 C-91.625 71.6275 -91.625 69.3175 -91.625 66.9375 C-90.965 66.9375 -90.305 66.9375 -89.625 66.9375 C-89.13 66.4425 -88.635 65.9475 -88.125 65.4375 C-87.63 64.9425 -87.135 64.4475 -86.625 63.9375 C-85.965 63.9375 -85.305 63.9375 -84.625 63.9375 C-84.625 62.2875 -84.625 60.6375 -84.625 58.9375 C-83.635 58.6075 -82.645 58.2775 -81.625 57.9375 C-81.625 56.9475 -81.625 55.9575 -81.625 54.9375 C-80.965 54.9375 -80.305 54.9375 -79.625 54.9375 C-79.295 52.9575 -78.965 50.9775 -78.625 48.9375 C-77.965 48.9375 -77.305 48.9375 -76.625 48.9375 C-76.625 46.2975 -76.625 43.6575 -76.625 40.9375 C-78.11 40.4425 -78.11 40.4425 -79.625 39.9375 C-76 36.9375 -76 36.9375 -72.625 36.9375 C-73.285 36.2775 -73.945 35.6175 -74.625 34.9375 C-73.965 34.9375 -73.305 34.9375 -72.625 34.9375 C-72.625 34.2775 -72.625 33.6175 -72.625 32.9375 C-70.645 32.9375 -68.665 32.9375 -66.625 32.9375 C-66.810625 31.98875 -66.99625 31.04 -67.1875 30.0625 C-67.625 26.9375 -67.625 26.9375 -66.625 24.9375 C-65.820625 24.81375 -65.01625 24.69 -64.1875 24.5625 C-61.52048451 24.20517573 -61.52048451 24.20517573 -60.3125 22.125 C-59.4251156 19.68366953 -59.4251156 19.68366953 -59.625 15.9375 C-58.861875 15.834375 -58.09875 15.73125 -57.3125 15.625 C-54.40844089 14.88210116 -53.33504234 14.36756017 -51.625 11.9375 C-51.625 10.6175 -51.625 9.2975 -51.625 7.9375 C-50.8825 8.164375 -50.14 8.39125 -49.375 8.625 C-46.56585007 9.23226698 -46.56585007 9.23226698 -44.3125 7.5 C-43.755625 6.984375 -43.19875 6.46875 -42.625 5.9375 C-43.12 3.4625 -43.12 3.4625 -43.625 0.9375 C-43.0475 1.14375 -42.47 1.35 -41.875 1.5625 C-39.59742945 2.16878627 -39.59742945 2.16878627 -37.625 0.9375 C-35.625 -0.0625 -35.625 -0.0625 -33.8671875 0.42578125 C-30.93994429 1.09384547 -28.69943099 0.64659149 -25.75 0.125 C-24.68265625 -0.06191406 -23.6153125 -0.24882812 -22.515625 -0.44140625 C-19.53408435 -0.99733118 -19.53408435 -0.99733118 -16.5 -2.3125 C-10.95393493 -3.75929958 -5.37242405 -1.57467601 0 0 Z M33.375 20.9375 C33.705 21.9275 34.035 22.9175 34.375 23.9375 C34.375 22.9475 34.375 21.9575 34.375 20.9375 C34.045 20.9375 33.715 20.9375 33.375 20.9375 Z M72.375 81.9375 C72.705 82.5975 73.035 83.2575 73.375 83.9375 C73.705 83.2775 74.035 82.6175 74.375 81.9375 C73.715 81.9375 73.055 81.9375 72.375 81.9375 Z M33.375 16.9375 C36.375 17.9375 36.375 17.9375 36.375 17.9375 Z " fill="#3D7CC7" transform="translate(163.625,159.0625)"/>
<path d="M0 0 C19.68513402 15.09562244 29.46384849 39.316438 37.28125 62.1328125 C37.68714355 63.31617187 38.09303711 64.49953125 38.51123047 65.71875 C39.59773283 68.90617797 40.66475551 72.09964575 41.71844482 75.29806519 C42.33356259 77.16440272 42.95505894 79.02863408 43.57666016 80.89282227 C43.94452637 82.03549561 44.31239258 83.17816895 44.69140625 84.35546875 C45.02277588 85.37390869 45.35414551 86.39234863 45.69555664 87.44165039 C46.28623773 90.15573027 46.22298298 91.55771942 45.28125 94.1328125 C43.28125 93.1328125 43.28125 93.1328125 42.15625 90.0703125 C41.723125 88.61625 41.723125 88.61625 41.28125 87.1328125 C40.476875 87.2978125 39.6725 87.4628125 38.84375 87.6328125 C36.28125 88.1328125 36.28125 88.1328125 35.28125 88.1328125 C35.28125 85.4928125 35.28125 82.8528125 35.28125 80.1328125 C35.94125 80.1328125 36.60125 80.1328125 37.28125 80.1328125 C37.28125 79.1428125 37.28125 78.1528125 37.28125 77.1328125 C36.62125 77.1328125 35.96125 77.1328125 35.28125 77.1328125 C35.15625 72.3828125 35.15625 72.3828125 36.28125 70.1328125 C35.29125 69.4728125 34.30125 68.8128125 33.28125 68.1328125 C32.8046875 66.07421875 32.8046875 66.07421875 32.65625 63.6953125 C32.46098619 60.87328554 32.18744569 58.85139957 31.28125 56.1328125 C29.63125 56.1328125 27.98125 56.1328125 26.28125 56.1328125 C26.38824219 55.5759375 26.49523437 55.0190625 26.60546875 54.4453125 C27.55982168 48.3702917 26.82189686 44.72223559 24.28125 39.1328125 C22.96125 39.4628125 21.64125 39.7928125 20.28125 40.1328125 C19.24119298 36.75262719 19.20120518 33.6547846 19.28125 30.1328125 C17.79625 29.6378125 17.79625 29.6378125 16.28125 29.1328125 C16.28125 27.4828125 16.28125 25.8328125 16.28125 24.1328125 C14.63125 23.8028125 12.98125 23.4728125 11.28125 23.1328125 C10.95125 21.4828125 10.62125 19.8328125 10.28125 18.1328125 C8.79625 17.6378125 8.79625 17.6378125 7.28125 17.1328125 C7.28125 16.1428125 7.28125 15.1528125 7.28125 14.1328125 C5.79625 14.6278125 5.79625 14.6278125 4.28125 15.1328125 C3.28125 14.1328125 3.28125 14.1328125 3.18359375 12.28515625 C3.21614583 10.234375 3.24869792 8.18359375 3.28125 6.1328125 C1.79625 6.6278125 1.79625 6.6278125 0.28125 7.1328125 C-0.37875 6.8028125 -1.03875 6.4728125 -1.71875 6.1328125 C-2.04875 6.7928125 -2.37875 7.4528125 -2.71875 8.1328125 C-3.84375 4.3828125 -3.84375 4.3828125 -2.71875 2.1328125 C-3.688125 2.0090625 -4.6575 1.8853125 -5.65625 1.7578125 C-6.666875 1.5515625 -7.6775 1.3453125 -8.71875 1.1328125 C-9.21375 0.1428125 -9.21375 0.1428125 -9.71875 -0.8671875 C-10.70875 -0.5371875 -11.69875 -0.2071875 -12.71875 0.1328125 C-12.71875 -0.5271875 -12.71875 -1.1871875 -12.71875 -1.8671875 C-14.03875 -1.8671875 -15.35875 -1.8671875 -16.71875 -1.8671875 C-17.04875 -1.2071875 -17.37875 -0.5471875 -17.71875 0.1328125 C-19.03875 -0.1971875 -20.35875 -0.5271875 -21.71875 -0.8671875 C-21.38875 -2.8471875 -21.05875 -4.8271875 -20.71875 -6.8671875 C-21.95625 -6.6815625 -23.19375 -6.4959375 -24.46875 -6.3046875 C-27.54900658 -5.90811126 -29.72569981 -5.98035781 -32.71875 -6.8671875 C-35.7932856 -6.0907943 -35.7932856 -6.0907943 -37.71875 -3.8671875 C-39.03875 -3.8671875 -40.35875 -3.8671875 -41.71875 -3.8671875 C-43.06039079 -3.5690451 -44.39726173 -3.24475558 -45.71875 -2.8671875 C-44.72875 -2.2071875 -43.73875 -1.5471875 -42.71875 -0.8671875 C-46.45361879 -0.2925923 -49.93168268 0.1328125 -53.71875 0.1328125 C-56.30125541 1.22842086 -58.36888235 2.56623407 -60.71875 4.1328125 C-60.05875 5.1228125 -59.39875 6.1128125 -58.71875 7.1328125 C-61.48139289 7.73014069 -63.87907769 8.1328125 -66.71875 8.1328125 C-66.863125 8.7515625 -67.0075 9.3703125 -67.15625 10.0078125 C-67.71875 12.1328125 -67.71875 12.1328125 -68.71875 14.1328125 C-68.22375 15.6178125 -68.22375 15.6178125 -67.71875 17.1328125 C-68.70875 17.7928125 -69.69875 18.4528125 -70.71875 19.1328125 C-71.37875 18.4728125 -72.03875 17.8128125 -72.71875 17.1328125 C-75.85581517 21.23228554 -75.85581517 21.23228554 -76.71875 26.1328125 C-77.70875 26.6278125 -77.70875 26.6278125 -78.71875 27.1328125 C-78.05875 27.4628125 -77.39875 27.7928125 -76.71875 28.1328125 C-76.90625 29.9453125 -76.90625 29.9453125 -77.71875 32.1328125 C-78.481875 32.5040625 -79.245 32.8753125 -80.03125 33.2578125 C-84.16490805 36.14175998 -85.32509383 40.39905298 -86.71875 45.1328125 C-86.71875 46.1228125 -86.71875 47.1128125 -86.71875 48.1328125 C-87.399375 48.7103125 -88.08 49.2878125 -88.78125 49.8828125 C-89.420625 50.6253125 -90.06 51.3678125 -90.71875 52.1328125 C-90.533125 53.2053125 -90.3475 54.2778125 -90.15625 55.3828125 C-89.60561359 60.10255316 -90.88288058 61.53797873 -93.515625 65.27734375 C-94.96183495 67.5077 -95.27385861 69.53761274 -95.71875 72.1328125 C-96.69725195 73.15385801 -97.69855427 74.1534246 -98.71875 75.1328125 C-99.90232886 77.76298774 -100.80659379 80.39634387 -101.71875 83.1328125 C-102.37875 83.1328125 -103.03875 83.1328125 -103.71875 83.1328125 C-100.11493468 65.49595872 -93.71001826 48.24363189 -85.71875 32.1328125 C-85.37231445 31.43188477 -85.02587891 30.73095703 -84.66894531 30.00878906 C-76.11674007 13.03739549 -64.02324761 -1.37287959 -45.69921875 -7.95703125 C-29.67752209 -12.84963324 -13.60365307 -9.34273875 0 0 Z " fill="#EB543E" transform="translate(180.71875,23.8671875)"/>
<path d="M0 0 C0.66 0 1.32 0 2 0 C2 6.6 2 13.2 2 20 C1.01 20 0.02 20 -1 20 C-1 19.34 -1 18.68 -1 18 C-2.32 18.33 -3.64 18.66 -5 19 C-5.144375 19.763125 -5.28875 20.52625 -5.4375 21.3125 C-6 24 -6 24 -7 27 C-6.01 27 -5.02 27 -4 27 C-3.505 28.485 -3.505 28.485 -3 30 C-4.32 31.32 -5.64 32.64 -7 34 C-7 33.34 -7 32.68 -7 32 C-7.66 32 -8.32 32 -9 32 C-9.185625 33.2684375 -9.185625 33.2684375 -9.375 34.5625 C-10.02411107 38.1326109 -10.98694833 41.51763487 -12 45 C-12.34820041 46.66362417 -12.68404492 48.32995171 -13 50 C-13.32483418 51.33542939 -13.6550855 52.66961551 -14 54 C-14.66 54 -15.32 54 -16 54 C-16 55.65 -16 57.3 -16 59 C-17.98 59.495 -17.98 59.495 -20 60 C-20.144375 60.763125 -20.28875 61.52625 -20.4375 62.3125 C-21 65 -21 65 -22 68 C-21.01 68.495 -21.01 68.495 -20 69 C-20.66 70.32 -21.32 71.64 -22 73 C-22.99 73 -23.98 73 -25 73 C-25 73.66 -25 74.32 -25 75 C-27.475 75.99 -27.475 75.99 -30 77 C-29.90976562 77.89847656 -29.81953125 78.79695313 -29.7265625 79.72265625 C-30.07507519 83.89982983 -31.25076492 84.7518405 -34.375 87.4375 C-38.36524009 91.01015856 -38.36524009 91.01015856 -40.125 95.875 C-41 99 -41 99 -42.65625 100.09765625 C-44.625 100.9375 -44.625 100.9375 -48 102 C-47.34 102.99 -46.68 103.98 -46 105 C-46.825 105.556875 -47.65 106.11375 -48.5 106.6875 C-51.2745414 108.74927133 -51.2745414 108.74927133 -51.3125 111.75 C-51.209375 112.4925 -51.10625 113.235 -51 114 C-50.401875 114.0825 -49.80375 114.165 -49.1875 114.25 C-46.4033704 115.20455872 -45.56688858 116.57132271 -44 119 C-49.4389165 119.21755666 -53.87080814 119.10428384 -59 117 C-60.3695895 113.01573964 -59.80768725 110.13368193 -58.2265625 106.26953125 C-55.78735317 101.75621718 -52.5579828 97.68640257 -49 94 C-48.34 94 -47.68 94 -47 94 C-46.7525 93.43667969 -46.505 92.87335938 -46.25 92.29296875 C-44.79134545 89.61724932 -43.01269058 87.60193553 -41 85.3125 C-25.57655731 66.67068243 -17.12441339 43.46411649 -9 21 C-8.34 21 -7.68 21 -7 21 C-6.81824219 20.35933594 -6.63648438 19.71867187 -6.44921875 19.05859375 C-5.26760301 14.99262368 -4.08961513 11.0018884 -2.375 7.125 C-1.308709 4.70161136 -0.51564 2.5782 0 0 Z " fill="#2E86E2" transform="translate(62,165)"/>
<path d="M0 0 C21.68007558 16.84851588 29.21414237 50.93642743 37 76 C37.40154297 77.25441895 37.80308594 78.50883789 38.21679688 79.80126953 C39 83 39 83 38 86 C36 85 36 85 34.875 81.9375 C34.58625 80.968125 34.2975 79.99875 34 79 C33.195625 79.165 32.39125 79.33 31.5625 79.5 C29 80 29 80 28 80 C28 77.36 28 74.72 28 72 C28.66 72 29.32 72 30 72 C30 71.01 30 70.02 30 69 C29.34 69 28.68 69 28 69 C27.875 64.25 27.875 64.25 29 62 C28.01 61.34 27.02 60.68 26 60 C25.5234375 57.94140625 25.5234375 57.94140625 25.375 55.5625 C25.17973619 52.74047304 24.90619569 50.71858707 24 48 C22.35 48 20.7 48 19 48 C19.10699219 47.443125 19.21398437 46.88625 19.32421875 46.3125 C20.27857168 40.2374792 19.54064686 36.58942309 17 31 C15.68 31.33 14.36 31.66 13 32 C11.95994298 28.61981469 11.91995518 25.5219721 12 22 C11.01 21.67 10.02 21.34 9 21 C9 19.35 9 17.7 9 16 C7.35 15.67 5.7 15.34 4 15 C3.81824219 13.95199219 3.81824219 13.95199219 3.6328125 12.8828125 C3.46523437 11.97273438 3.29765625 11.06265625 3.125 10.125 C2.96257812 9.22007813 2.80015625 8.31515625 2.6328125 7.3828125 C2.16955297 4.83494012 2.16955297 4.83494012 0 3 C0 2.01 0 1.02 0 0 Z " fill="#DD5147" transform="translate(188,32)"/>
<path d="M0 0 C0.495 0.99 0.495 0.99 1 2 C0.06833174 4.03273074 -0.9349985 6.03384339 -2 8 C-2.33 8.66 -2.66 9.32 -3 10 C-2.505 11.485 -2.505 11.485 -2 13 C-2.99 13.66 -3.98 14.32 -5 15 C-5.66 14.34 -6.32 13.68 -7 13 C-10.13706517 17.09947304 -10.13706517 17.09947304 -11 22 C-11.66 22.33 -12.32 22.66 -13 23 C-12.34 23.33 -11.68 23.66 -11 24 C-11.1875 25.8125 -11.1875 25.8125 -12 28 C-12.763125 28.37125 -13.52625 28.7425 -14.3125 29.125 C-18.44615805 32.00894748 -19.60634383 36.26624048 -21 41 C-21 41.99 -21 42.98 -21 44 C-21.680625 44.5775 -22.36125 45.155 -23.0625 45.75 C-23.701875 46.4925 -24.34125 47.235 -25 48 C-24.814375 49.0725 -24.62875 50.145 -24.4375 51.25 C-23.88686359 55.96974066 -25.16413058 57.40516623 -27.796875 61.14453125 C-29.24308495 63.3748875 -29.55510861 65.40480024 -30 68 C-30.97850195 69.02104551 -31.97980427 70.0206121 -33 71 C-34.18357886 73.63017524 -35.08784379 76.26353137 -36 79 C-36.66 79 -37.32 79 -38 79 C-34.39618468 61.36314622 -27.99126826 44.11081939 -20 28 C-19.65356445 27.29907227 -19.30712891 26.59814453 -18.95019531 25.87597656 C-13.91442475 15.88275942 -7.95943977 7.85529756 0 0 Z " fill="#8BB06A" transform="translate(115,28)"/>
<path d="M0 0 C0.66 0.33 1.32 0.66 2 1 C1.505 2.051875 1.01 3.10375 0.5 4.1875 C-0.82779788 7.25452609 -1.30715006 9.62134936 -1 13 C-1.99 13.33 -2.98 13.66 -4 14 C-4 14.66 -4 15.32 -4 16 C-2.35 16 -0.7 16 1 16 C0.67 16.99 0.34 17.98 0 19 C0.33 19.66 0.66 20.32 1 21 C0.34 21.99 -0.32 22.98 -1 24 C-1.99 24 -2.98 24 -4 24 C-5.8808206 26.16140195 -5.8808206 26.16140195 -7 29 C-6.71576172 30.175625 -6.71576172 30.175625 -6.42578125 31.375 C-5.88199449 34.72752021 -6.68928412 35.95565941 -8.4375 38.8125 C-8.91058594 39.60269531 -9.38367188 40.39289063 -9.87109375 41.20703125 C-10.24363281 41.79871094 -10.61617187 42.39039063 -11 43 C-9.515 42.505 -9.515 42.505 -8 42 C-8.44760399 47.07284516 -10.77197462 49.28777082 -14 53 C-14.33 53.99 -14.66 54.98 -15 56 C-15.66 56 -16.32 56 -17 56 C-17.04125 57.175625 -17.0825 58.35125 -17.125 59.5625 C-17.63755102 64.35140952 -19.15505989 68.50265721 -20.9375 72.9375 C-21.20256348 73.60015869 -21.46762695 74.26281738 -21.74072266 74.94555664 C-22.90500688 77.74930627 -23.83316853 79.83316853 -26 82 C-24.46348091 74.4925518 -22.31928905 67.2569355 -20.0625 59.9375 C-17.24102404 50.74795205 -14.57260715 41.53261994 -12.1015625 32.2421875 C-11.85875046 31.33475296 -11.61593842 30.42731842 -11.36576843 29.49238586 C-10.39662591 25.86782792 -9.42794225 22.2435288 -8.48977661 18.61080933 C-7.83267989 16.06643521 -7.15806662 13.52725918 -6.48046875 10.98828125 C-6.28905304 10.22397797 -6.09763733 9.45967468 -5.90042114 8.67221069 C-5.01591215 5.4115243 -4.35447124 3.32885068 -1.8449707 1.00073242 C-1.23613037 0.67049072 -0.62729004 0.34024902 0 0 Z " fill="#458CA2" transform="translate(80,104)"/>
<path d="M0 0 C0.66 0 1.32 0 2 0 C2 6.6 2 13.2 2 20 C1.01 20 0.02 20 -1 20 C-1 19.34 -1 18.68 -1 18 C-2.32 18.33 -3.64 18.66 -5 19 C-5.2165625 20.1446875 -5.2165625 20.1446875 -5.4375 21.3125 C-6 24 -6 24 -7 27 C-6.01 27 -5.02 27 -4 27 C-3.67 27.99 -3.34 28.98 -3 30 C-4.32 31.32 -5.64 32.64 -7 34 C-7 33.34 -7 32.68 -7 32 C-7.66 32 -8.32 32 -9 32 C-9.12375 32.845625 -9.2475 33.69125 -9.375 34.5625 C-10.02411107 38.1326109 -10.98694833 41.51763487 -12 45 C-12.34820041 46.66362417 -12.68404492 48.32995171 -13 50 C-13.32483418 51.33542939 -13.6550855 52.66961551 -14 54 C-14.75925781 54.04125 -15.51851562 54.0825 -16.30078125 54.125 C-19.25075114 54.76666119 -19.25075114 54.76666119 -20.73046875 57.6875 C-21.21128906 58.780625 -21.69210938 59.87375 -22.1875 61 C-24.83143508 66.91571754 -24.83143508 66.91571754 -27 68 C-27.33 68.99 -27.66 69.98 -28 71 C-28.66 71 -29.32 71 -30 71 C-28.81690196 67.82567686 -27.43289254 64.79530657 -25.93359375 61.76171875 C-19.38148931 48.47631523 -13.97850772 34.94674126 -9 21 C-8.34 21 -7.68 21 -7 21 C-6.81824219 20.35933594 -6.63648437 19.71867187 -6.44921875 19.05859375 C-5.26760301 14.99262368 -4.08961513 11.0018884 -2.375 7.125 C-1.308709 4.70161136 -0.51564 2.5782 0 0 Z " fill="#2C8FD7" transform="translate(62,165)"/>
<path d="M0 0 C3.78279119 1.51311647 3.78279119 1.51311647 4.80859375 3.8125 C6.41387247 6.759897 8.53172135 8.21329251 11.1875 10.25 C24.54979528 20.9819222 24.54979528 20.9819222 25.98828125 29.953125 C26.00605189 33.05706324 25.01889283 34.70263919 23 37 C19.53767506 39.30821663 18.08201684 39.27000989 14 39.25 C12.948125 39.25515625 11.89625 39.2603125 10.8125 39.265625 C8 39 8 39 5 37 C10.445 36.505 10.445 36.505 16 36 C16.33 35.01 16.66 34.02 17 33 C18.32 33.33 19.64 33.66 21 34 C21.33 32.02 21.66 30.04 22 28 C21.37609375 27.76539063 20.7521875 27.53078125 20.109375 27.2890625 C17.39744059 25.63176925 17.11024003 24.3858401 16.25 21.375 C15.88648438 20.14910156 15.88648438 20.14910156 15.515625 18.8984375 C15.34546875 18.27195312 15.1753125 17.64546875 15 17 C14.21625 16.9175 13.4325 16.835 12.625 16.75 C10 16 10 16 8.75 14.125 C8.14919925 12.42273121 7.57084854 10.71254562 7 9 C5.68 9.33 4.36 9.66 3 10 C0.59185923 6.48812804 -0.36629408 4.27343092 0 0 Z " fill="#3D6DB4" transform="translate(272,246)"/>
<path d="M0 0 C1.74452239 2.61678358 2.48768499 4.20213996 3.32861328 7.13256836 C3.56871124 7.96030258 3.8088092 8.7880368 4.05618286 9.64085388 C4.30834564 10.53152054 4.56050842 11.42218719 4.8203125 12.33984375 C5.08383514 13.2583461 5.34735779 14.17684845 5.61886597 15.1231842 C6.17445458 17.06502339 6.72737743 19.00762697 7.27783203 20.95092773 C8.12136196 23.92467459 8.97609126 26.89503895 9.83203125 29.86523438 C10.3704693 31.75241096 10.90825173 33.63977475 11.4453125 35.52734375 C11.70152374 36.41598618 11.95773499 37.3046286 12.22171021 38.22019958 C12.45550385 39.05108597 12.68929749 39.88197235 12.93017578 40.73803711 C13.24089523 41.83032875 13.24089523 41.83032875 13.55789185 42.94468689 C14 45 14 45 14 49 C13.01 48.67 12.02 48.34 11 48 C10.81824219 46.90300781 10.63648438 45.80601562 10.44921875 44.67578125 C10.19585059 43.22126033 9.94191427 41.7668383 9.6875 40.3125 C9.56955078 39.59126953 9.45160156 38.87003906 9.33007812 38.12695312 C8.57268771 33.87391465 7.70691213 30.4955927 5 27 C4.01 26.67 3.02 26.34 2 26 C2 24.35 2 22.7 2 21 C1.34 21 0.68 21 0 21 C0 20.34 0 19.68 0 19 C-0.66 18.67 -1.32 18.34 -2 18 C-2.3690205 5.33029613 -2.3690205 5.33029613 0 0 Z " fill="#8F78BC" transform="translate(226,115)"/>
<path d="M0 0 C3.27479205 2.32079101 3.65843594 5.14519947 4.33007812 8.95117188 C4.44802734 9.68916016 4.56597656 10.42714844 4.6875 11.1875 C4.88182617 12.31188477 4.88182617 12.31188477 5.08007812 13.45898438 C5.39740538 15.30418359 5.70013291 17.151883 6 19 C6.99 19.33 7.98 19.66 9 20 C10.47298561 22.83381291 11.25870526 25.94988394 12.1875 29 C12.46013672 29.82628906 12.73277344 30.65257812 13.01367188 31.50390625 C14.79108319 37.19696804 15.27026319 42.0421981 15 48 C11.535 46.515 11.535 46.515 8 45 C8.66 44.34 9.32 43.68 10 43 C9.34 42.01 8.68 41.02 8 40 C8 39.34 8 38.68 8 38 C8.66 38 9.32 38 10 38 C9.81584568 35.05908413 9.81584568 35.05908413 9 32 C7.04836882 30.56362302 7.04836882 30.56362302 5 30 C5.33 29.67 5.66 29.34 6 29 C6.04080783 27.00041636 6.04254356 24.99954746 6 23 C5.34 23 4.68 23 4 23 C4 20.69 4 18.38 4 16 C3.34 16 2.68 16 2 16 C1.66259915 14.08404518 1.33023588 12.16720278 1 10.25 C0.814375 9.18265625 0.62875 8.1153125 0.4375 7.015625 C0 4 0 4 0 0 Z " fill="#6586C9" transform="translate(232,144)"/>
<path d="M0 0 C2.13071858 3.19607787 3.2425818 6.32188001 4.41796875 9.93359375 C4.75022209 10.94511253 4.75022209 10.94511253 5.08918762 11.97706604 C5.554716 13.4009692 6.0176874 14.82571055 6.47827148 16.2512207 C7.1849589 18.42966676 7.90752148 20.60242554 8.63085938 22.77539062 C9.08171466 24.16113809 9.53161669 25.54719613 9.98046875 26.93359375 C10.19809372 27.5816246 10.41571869 28.22965546 10.63993835 28.89732361 C11.70873704 32.26459618 12.34614396 34.65012207 11 38 C9 37 9 37 7.875 33.9375 C7.58625 32.968125 7.2975 31.99875 7 31 C5.7934375 31.2475 5.7934375 31.2475 4.5625 31.5 C2 32 2 32 1 32 C1 29.36 1 26.72 1 24 C1.66 24 2.32 24 3 24 C3 23.01 3 22.02 3 21 C2.34 21 1.68 21 1 21 C0.87179487 16.38461538 0.87179487 16.38461538 1.625 14.125 C2.20283804 10.85058444 0.93911544 8.14879883 0 5 C-0.125 2.0625 -0.125 2.0625 0 0 Z " fill="#A26487" transform="translate(215,80)"/>
<path d="M0 0 C0.66 0.33 1.32 0.66 2 1 C1.505 2.051875 1.01 3.10375 0.5 4.1875 C-0.82779788 7.25452609 -1.30715006 9.62134936 -1 13 C-1.99 13.33 -2.98 13.66 -4 14 C-4 14.66 -4 15.32 -4 16 C-2.35 16 -0.7 16 1 16 C0.67 16.99 0.34 17.98 0 19 C0.33 19.66 0.66 20.32 1 21 C0.34 21.99 -0.32 22.98 -1 24 C-1.99 24 -2.98 24 -4 24 C-5.03013277 25.64821244 -6.03114628 27.31503702 -7 29 C-7.66 29 -8.32 29 -9 29 C-9.12375 29.639375 -9.2475 30.27875 -9.375 30.9375 C-9.58125 31.618125 -9.7875 32.29875 -10 33 C-10.99 33.495 -10.99 33.495 -12 34 C-10.70792104 28.32309987 -9.37727993 22.65685563 -8 17 C-7.82919922 16.29681641 -7.65839844 15.59363281 -7.48242188 14.86914062 C-7.0067712 12.94975027 -6.50403499 11.03713274 -6 9.125 C-5.566875 7.45824219 -5.566875 7.45824219 -5.125 5.7578125 C-3.884164 2.71604093 -2.78510915 1.65946087 0 0 Z " fill="#63B089" transform="translate(80,104)"/>
<path d="M0 0 C0.495 0.99 0.495 0.99 1 2 C0.01 2.33 -0.98 2.66 -2 3 C-2.66 3.66 -3.32 4.32 -4 5 C-5.32 5 -6.64 5 -8 5 C-9.34164079 5.2981424 -10.67851173 5.62243192 -12 6 C-11.01 6.66 -10.02 7.32 -9 8 C-12.73486879 8.5745952 -16.21293268 9 -20 9 C-22.58250541 10.09560836 -24.65013235 11.43342157 -27 13 C-26.01 14.485 -26.01 14.485 -25 16 C-29.75 17 -29.75 17 -32 17 C-31.50287566 13.60298369 -30.56181492 11.51731473 -28.02734375 9.18359375 C-19.32214417 2.79610182 -10.84207266 -0.71095558 0 0 Z " fill="#DE923D" transform="translate(147,15)"/>
<path d="M0 0 C2.33637647 0.9493616 3.72124418 1.56126149 5.09326172 3.72070312 C5.36928223 4.40068359 5.64530273 5.08066406 5.9296875 5.78125 C6.24736084 6.53639893 6.56503418 7.29154785 6.89233398 8.06958008 C7.37875366 9.27263794 7.37875366 9.27263794 7.875 10.5 C10.4639892 16.64679676 13.15057032 22.39145261 16.87109375 27.95703125 C18.15958483 30.28879884 18.60204314 32.37897378 19 35 C16 35 16 35 13 34 C12.05078125 31.71484375 12.05078125 31.71484375 11.3125 28.9375 C11.06113281 28.01839844 10.80976563 27.09929687 10.55078125 26.15234375 C10.36902344 25.44207031 10.18726563 24.73179687 10 24 C8.68 24.33 7.36 24.66 6 25 C6 22.03 6 19.06 6 16 C5.34 15.67 4.68 15.34 4 15 C3.3671875 12.27734375 3.3671875 12.27734375 2.875 8.9375 C2.70742187 7.83277344 2.53984375 6.72804687 2.3671875 5.58984375 C2.24601563 4.73519531 2.12484375 3.88054687 2 3 C1.34 3 0.68 3 0 3 C0 2.01 0 1.02 0 0 Z " fill="#418AEE" transform="translate(252,206)"/>
<path d="M0 0 C0.33 0 0.66 0 1 0 C1.21278058 4.46839215 0.59138085 7.82262526 -1 12 C-1.66 12 -2.32 12 -3 12 C-3.92931322 18.38688478 -3.92931322 18.38688478 -3.4375 24.75 C-2.82450104 27.90256606 -3.84062772 30.06747011 -5 33 C-5.75925781 33.04125 -6.51851562 33.0825 -7.30078125 33.125 C-10.25075114 33.76666119 -10.25075114 33.76666119 -11.73046875 36.6875 C-12.21128906 37.780625 -12.69210938 38.87375 -13.1875 40 C-15.83143508 45.91571754 -15.83143508 45.91571754 -18 47 C-18.33 47.99 -18.66 48.98 -19 50 C-19.66 50 -20.32 50 -21 50 C-19.81690196 46.82567686 -18.43289254 43.79530657 -16.93359375 40.76171875 C-10.38148931 27.47631523 -4.97850772 13.94674126 0 0 Z " fill="#3288C7" transform="translate(53,186)"/>
<path d="M0 0 C1.9375 0.625 1.9375 0.625 4 2 C4.33333333 4 4.66666667 6 5 8 C6.81701858 9.40854666 6.81701858 9.40854666 9 10 C9.99 10.33 10.98 10.66 12 11 C12 12.65 12 14.3 12 16 C12.94875 16.2475 13.8975 16.495 14.875 16.75 C18 18 18 18 19.1875 19.75 C20.14096174 22.3903556 20.19867578 24.45032026 20.125 27.25 C20.10695312 28.14203125 20.08890625 29.0340625 20.0703125 29.953125 C20.04710937 30.62859375 20.02390625 31.3040625 20 32 C19.01 32.495 19.01 32.495 18 33 C17.505 30.525 17.505 30.525 17 28 C16.34 28 15.68 28 15 28 C11.3773369 23.47783212 9.0453391 18.12099018 6.89453125 12.78515625 C6.13069813 10.81564079 6.13069813 10.81564079 4 10 C1.71996593 6.71675094 0.56481614 3.95371299 0 0 Z " fill="#3987F4" transform="translate(204,192)"/>
<path d="M0 0 C7.82950991 9.92887877 12.86691173 23.51579532 14 36 C14.31504835 37.67021957 14.64325998 39.3381861 15 41 C13.04296875 40.27734375 13.04296875 40.27734375 11 39 C10.42578125 36.94140625 10.42578125 36.94140625 10.3125 34.5625 C10.14844108 31.71724958 9.91427025 29.74281075 9 27 C7.35 27 5.7 27 4 27 C4.268125 25.80375 4.53625 24.6075 4.8125 23.375 C5.53439624 17.40035877 3.33682039 12.60536712 1.12890625 7.13671875 C0 4 0 4 0 0 Z " fill="#DB535A" transform="translate(203,53)"/>
<path d="M0 0 C0.33 0.66 0.66 1.32 1 2 C0.06833174 4.03273074 -0.9349985 6.03384339 -2 8 C-2.33 8.66 -2.66 9.32 -3 10 C-2.67 10.99 -2.34 11.98 -2 13 C-2.99 13.66 -3.98 14.32 -5 15 C-5.66 14.34 -6.32 13.68 -7 13 C-10.13706517 17.09947304 -10.13706517 17.09947304 -11 22 C-11.66 22.33 -12.32 22.66 -13 23 C-12.34 23.33 -11.68 23.66 -11 24 C-11.125 25.8125 -11.125 25.8125 -12 28 C-15.0625 29.75 -15.0625 29.75 -18 31 C-17.67 29.02 -17.34 27.04 -17 25 C-16.34 25 -15.68 25 -15 25 C-15 23.906875 -15 22.81375 -15 21.6875 C-13.93266658 12.97867805 -6.18530686 5.72140885 0 0 Z " fill="#A8BB54" transform="translate(115,28)"/>
<path d="M0 0 C-3.1513645 1.05045483 -5.2236818 1.07321907 -8.5234375 0.9921875 C-27.09666205 -0.50522016 -27.09666205 -0.50522016 -43.81640625 5.60546875 C-44.40228516 6.29576172 -44.40228516 6.29576172 -45 7 C-45.66 6.67 -46.32 6.34 -47 6 C-47 4 -47 2 -47 0 C-46.4225 0.20625 -45.845 0.4125 -45.25 0.625 C-42.97242945 1.23128627 -42.97242945 1.23128627 -41 0 C-39 -1 -39 -1 -37.2421875 -0.51171875 C-34.31494429 0.15634547 -32.07443099 -0.29090851 -29.125 -0.8125 C-28.05765625 -0.99941406 -26.9903125 -1.18632812 -25.890625 -1.37890625 C-22.90908435 -1.93483118 -22.90908435 -1.93483118 -19.875 -3.25 C-13.45710734 -4.92423287 -6.20307567 -1.88789259 0 0 Z " fill="#367FD9" transform="translate(167,160)"/>
<path d="M0 0 C1.97265625 0.49609375 1.97265625 0.49609375 4.0625 1.4375 C6.09411696 2.37908504 6.09411696 2.37908504 8 3 C8.66 2.67 9.32 2.34 10 2 C15 7 15 7 15 10 C16.98 10.66 18.96 11.32 21 12 C21 13.32 21 14.64 21 16 C21.78375 16.0825 22.5675 16.165 23.375 16.25 C26 17 26 17 27.3125 19.0625 C27.539375 19.701875 27.76625 20.34125 28 21 C26.68 21.33 25.36 21.66 24 22 C19 16.25 19 16.25 19 14 C17.68 13.67 16.36 13.34 15 13 C15 12.34 15 11.68 15 11 C13.35 10.34 11.7 9.68 10 9 C10 8.01 10 7.02 10 6 C9.34 5.896875 8.68 5.79375 8 5.6875 C4.16158991 4.80786436 0.66903309 3.43030104 -3 2 C-2.01 1.34 -1.02 0.68 0 0 Z M26 16 C29 17 29 17 29 17 Z " fill="#3887EF" transform="translate(171,160)"/>
<path d="M0 0 C7.99976044 -0.20483028 15.26134446 -0.13480153 23 2 C23 2.99 23 3.98 23 5 C23.639375 5.103125 24.27875 5.20625 24.9375 5.3125 C25.618125 5.539375 26.29875 5.76625 27 6 C27.33 6.99 27.66 7.98 28 9 C27.01 9.33 26.02 9.66 25 10 C25 9.34 25 8.68 25 8 C23.68 8 22.36 8 21 8 C20.67 8.66 20.34 9.32 20 10 C18.68 9.67 17.36 9.34 16 9 C16.33 7.02 16.66 5.04 17 3 C15.865625 3.226875 14.73125 3.45375 13.5625 3.6875 C8.54551402 4.35164483 4.60279392 2.88586695 0 1 C0 0.67 0 0.34 0 0 Z " fill="#EB5E37" transform="translate(143,14)"/>
<path d="M0 0 C1.98 0 3.96 0 6 0 C4.67419796 4.64030713 2.76540778 8.06138892 0 12 C-2.2297305 15.5675688 -4.15389707 19.21988448 -6 23 C-6.66 23 -7.32 23 -8 23 C-8.33 23.66 -8.66 24.32 -9 25 C-9 24.01 -9 23.02 -9 22 C-8.34 22 -7.68 22 -7 22 C-6.67 20.02 -6.34 18.04 -6 16 C-5.34 16 -4.68 16 -4 16 C-4 13.36 -4 10.72 -4 8 C-4.99 7.67 -5.98 7.34 -7 7 C-3.375 4 -3.375 4 0 4 C-0.66 3.34 -1.32 2.68 -2 2 C-1.34 2 -0.68 2 0 2 C0 1.34 0 0.68 0 0 Z " fill="#3282E4" transform="translate(91,192)"/>
<path d="M0 0 C0.66 0.33 1.32 0.66 2 1 C2.73075648 3.3140622 3.40138258 5.64828869 4 8 C4.99 7.67 5.98 7.34 7 7 C9 12.625 9 12.625 9 16 C10.65 15.67 12.3 15.34 14 15 C14.33 15.66 14.66 16.32 15 17 C15.99 17.66 16.98 18.32 18 19 C18.1875 22.625 18.1875 22.625 18 26 C12.40432373 22.37843287 8.80456138 18.71366224 5.3125 13.0390625 C3.99874527 10.83984867 3.99874527 10.83984867 1.75 8.75 C-0.31787369 6.68212631 -1.08308726 4.75073823 -2 2 C-1.34 1.34 -0.68 0.68 0 0 Z " fill="#3286F3" transform="translate(238,241)"/>
<path d="M0 0 C2 2 2 2 2.125 5.125 C2.08375 6.07375 2.0425 7.0225 2 8 C2.598125 8.0825 3.19625 8.165 3.8125 8.25 C6.5966296 9.20455872 7.43311142 10.57132271 9 13 C-0.41002278 13.3690205 -0.41002278 13.3690205 -5 11 C-5 8.69 -5 6.38 -5 4 C-4.34 4 -3.68 4 -3 4 C-2.67 3.01 -2.34 2.02 -2 1 C-1.34 0.67 -0.68 0.34 0 0 Z " fill="#2F87EE" transform="translate(9,271)"/>
<path d="M0 0 C1.12019531 -0.01611328 2.24039063 -0.03222656 3.39453125 -0.04882812 C13.2506372 -0.05457848 21.23418269 2.25364862 30.125 6.3125 C30.125 7.3025 30.125 8.2925 30.125 9.3125 C32.6 10.3025 32.6 10.3025 35.125 11.3125 C34.135 11.6425 33.145 11.9725 32.125 12.3125 C30.28515625 11.23828125 30.28515625 11.23828125 28.1875 9.625 C15.62240852 1.05516814 0.68768535 0.54236639 -14.08935547 2.62451172 C-17.43701058 3.26637756 -20.67034469 4.15468905 -23.875 5.3125 C-21.65592477 2.26127156 -18.94957333 1.46510287 -15.35449219 0.67431641 C-10.25507173 -0.06980934 -5.14352585 -0.01469579 0 0 Z " fill="#447BBA" transform="translate(150.875,159.6875)"/>
<path d="M0 0 C0 3.61038576 -1.01106048 6.53871168 -2 10 C-2 10.99 -2 11.98 -2 13 C-3.5 14.6875 -3.5 14.6875 -5 16 C-5 15.34 -5 14.68 -5 14 C-9.86115742 14.41667064 -11.76394421 16.50156131 -15 20 C-15.66 20.33 -16.32 20.66 -17 21 C-15.4722133 17.56247993 -13.49818944 14.81046312 -11 12 C-10.34 12 -9.68 12 -9 12 C-8.74476562 11.42765625 -8.48953125 10.8553125 -8.2265625 10.265625 C-6.86912841 7.75826267 -5.28025896 5.8669544 -3.375 3.75 C-2.74335938 3.04359375 -2.11171875 2.3371875 -1.4609375 1.609375 C-0.97882812 1.07828125 -0.49671875 0.5471875 0 0 Z " fill="#2C85E5" transform="translate(24,247)"/>
<path d="M0 0 C4.52273425 6.78410137 7.41999212 15.810278 6 24 C4.9765625 26.25 4.9765625 26.25 4 28 C3.67 28 3.34 28 3 28 C3 25.69 3 23.38 3 21 C2.34 21 1.68 21 1 21 C0.87179487 16.38461538 0.87179487 16.38461538 1.625 14.125 C2.20283804 10.85058444 0.93911544 8.14879883 0 5 C-0.125 2.0625 -0.125 2.0625 0 0 Z " fill="#AF6071" transform="translate(215,80)"/>
<path d="M0 0 C2 1.3125 2 1.3125 4 3 C4 3.99 4 4.98 4 6 C4.99 6.33 5.98 6.66 7 7 C8.53515625 9.546875 8.53515625 9.546875 10.0625 12.75 C10.56910156 13.79671875 11.07570312 14.8434375 11.59765625 15.921875 C12.81328876 18.59017143 13.9418885 21.2661234 15 24 C15.66 24 16.32 24 17 24 C18.485 28.455 18.485 28.455 20 33 C16.88036964 30.10733702 14.74932198 27.20937517 12.6171875 23.53515625 C12.00746094 22.48779297 11.39773437 21.44042969 10.76953125 20.36132812 C10.14433594 19.27271484 9.51914063 18.18410156 8.875 17.0625 C8.24207031 15.97775391 7.60914063 14.89300781 6.95703125 13.77539062 C4.33963804 9.25469132 1.83575629 4.90221517 0 0 Z " fill="#447AC0" transform="translate(204,196)"/>
<path d="M0 0 C0.99 0 1.98 0 3 0 C3.63335679 9.21885996 3.63335679 9.21885996 1.125 12.3125 C0.42375 12.869375 -0.2775 13.42625 -1 14 C-2.21869929 16.50447516 -2.21869929 16.50447516 -3 19 C-3.33 19.99 -3.66 20.98 -4 22 C-4.66 22 -5.32 22 -6 22 C-4.47536437 14.50387484 -2.31993846 7.28640866 0 0 Z " fill="#71B17F" transform="translate(83,85)"/>
<path d="M0 0 C3.76085846 1.50434338 3.76085846 1.50434338 4.9140625 3.89453125 C6.14226038 6.27582138 7.38651664 7.32104344 9.5 8.9375 C12.45424977 11.35126332 13.99816527 13.215291 15 17 C12.625 16.75 12.625 16.75 10 16 C8.48887058 13.73330587 7.86560153 11.5968046 7 9 C5.68 9.33 4.36 9.66 3 10 C0.59185923 6.48812804 -0.36629408 4.27343092 0 0 Z " fill="#3C88F2" transform="translate(272,246)"/>
<path d="M0 0 C3 0 6 0 9 0 C9 0.66 9 1.32 9 2 C9.66 2.33 10.32 2.66 11 3 C10.67 4.65 10.34 6.3 10 8 C8.35 8.33 6.7 8.66 5 9 C4.34 7.35 3.68 5.7 3 4 C2.34 4 1.68 4 1 4 C0.67 2.68 0.34 1.36 0 0 Z " fill="#3585F3" transform="translate(223,225)"/>
<path d="M0 0 C1.32 0.33 2.64 0.66 4 1 C2.58143752 4.33435305 0.90068437 6.19565826 -1.875 8.5 C-4.71084912 10.89758153 -7.42508238 13.31779415 -10 16 C-10.33 15.34 -10.66 14.68 -11 14 C-10.67 13.34 -10.34 12.68 -10 12 C-9.34 12 -8.68 12 -8 12 C-6.609883 9.09123087 -6.609883 9.09123087 -6 6 C-5.67 5.34 -5.34 4.68 -5 4 C-4.01 4 -3.02 4 -2 4 C-2 3.34 -2 2.68 -2 2 C-1.34 2 -0.68 2 0 2 C0 1.34 0 0.68 0 0 Z " fill="#3085EF" transform="translate(50,255)"/>
<path d="M0 0 C2.475 0.99 2.475 0.99 5 2 C5.33 1.34 5.66 0.68 6 0 C6 0.99 6 1.98 6 3 C1.77777778 6 1.77777778 6 -1 6 C-1 6.66 -1 7.32 -1 8 C-2.98 8.66 -4.96 9.32 -7 10 C-7 10.66 -7 11.32 -7 12 C-8.98 12.33 -10.96 12.66 -13 13 C-12.67 12.34 -12.34 11.68 -12 11 C-11.34 11 -10.68 11 -10 11 C-9.67 10.34 -9.34 9.68 -9 9 C-8.34 8.01 -7.68 7.02 -7 6 C-6.175 5.87625 -5.35 5.7525 -4.5 5.625 C-3.675 5.41875 -2.85 5.2125 -2 5 C-0.62533375 2.52363988 -0.62533375 2.52363988 0 0 Z " fill="#3086EF" transform="translate(32,270)"/>
<path d="M0 0 C1.32 0.33 2.64 0.66 4 1 C1.6110655 5.35127355 -0.82263552 9.16524977 -4 13 C-4.33 13.66 -4.66 14.32 -5 15 C-5.66 15 -6.32 15 -7 15 C-7 15.66 -7 16.32 -7 17 C-7.99 17.33 -8.98 17.66 -10 18 C-10 15.36 -10 12.72 -10 10 C-8.3603125 9.62875 -8.3603125 9.62875 -6.6875 9.25 C-2.92509112 7.97460716 -1.73903483 7.47806966 0 4 C0 2.68 0 1.36 0 0 Z " fill="#3285F2" transform="translate(64,238)"/>
<path d="M0 0 C2.97 0.495 2.97 0.495 6 1 C5.67 1.99 5.34 2.98 5 4 C5.33 4.66 5.66 5.32 6 6 C5.01 7.485 5.01 7.485 4 9 C3.01 9 2.02 9 1 9 C-1.20142332 11.4390706 -1.20142332 11.4390706 -3 14 C-2.48594831 9.03083364 -1.76615118 4.70973649 0 0 Z " fill="#4EAC9E" transform="translate(75,119)"/>
<path d="M0 0 C0.66 0.33 1.32 0.66 2 1 C1.34 2.65 0.68 4.3 0 6 C-0.66 6 -1.32 6 -2 6 C-2.10957031 6.80824219 -2.21914062 7.61648437 -2.33203125 8.44921875 C-2.49058594 9.51785156 -2.64914063 10.58648437 -2.8125 11.6875 C-2.96332031 12.74324219 -3.11414063 13.79898438 -3.26953125 14.88671875 C-4.0268281 18.1143422 -5.09408775 20.30370944 -7 23 C-7.33 23 -7.66 23 -8 23 C-8.46945178 16.42767513 -7.3118163 12.62785 -4 7 C-3.6184375 6.32066406 -3.236875 5.64132813 -2.84375 4.94140625 C-1.91094012 3.28566871 -0.95756723 1.64154382 0 0 Z " fill="#A0B466" transform="translate(100,47)"/>
<path d="M0 0 C2.88437779 1.29299694 4.87219421 2.65941363 7 5 C7.99 4.67 8.98 4.34 10 4 C10 4.66 10 5.32 10 6 C10.99 6 11.98 6 13 6 C13.33 5.34 13.66 4.68 14 4 C15 5 15 5 15.09765625 6.84765625 C15.04882812 9.92382812 15.04882812 9.92382812 15 13 C11.34119259 11.4307213 8.74472372 9.1680204 5.8125 6.5 C4.93207031 5.7059375 4.05164063 4.911875 3.14453125 4.09375 C1 2 1 2 0 0 Z " fill="#3C7DD5" transform="translate(248,261)"/>
<path d="M0 0 C1.12588014 0.95729916 2.2506715 1.91587895 3.375 2.875 C4.00148438 3.40867187 4.62796875 3.94234375 5.2734375 4.4921875 C9.56797784 8.24262318 9.46051897 10.42536264 10 16 C7.640625 15.33984375 7.640625 15.33984375 5 14 C3.671875 11.50390625 3.671875 11.50390625 2.75 8.5625 C2.43546875 7.59441406 2.1209375 6.62632812 1.796875 5.62890625 C1.53390625 4.76136719 1.2709375 3.89382813 1 3 C0.67 2.01 0.34 1.02 0 0 Z " fill="#3D7FD9" transform="translate(285,258)"/>
<path d="M0 0 C3.7860311 4.64649272 5.17002757 9.12018166 6.0625 15 C6.63162732 18.68756878 7.24106323 22.34635751 8 26 C6.0703125 25.421875 6.0703125 25.421875 4 24 C3.2421875 20.953125 3.2421875 20.953125 2.875 17.25 C2.38211806 12.52235692 1.51845595 8.49262175 0 4 C0 2.68 0 1.36 0 0 Z " fill="#C05960" transform="translate(210,68)"/>
<path d="M0 0 C7.31041153 1.81464116 12.32771705 5.10547688 18 10 C17.01 10.33 16.02 10.66 15 11 C14.34 10.67 13.68 10.34 13 10 C13 9.34 13 8.68 13 8 C12.01 8.33 11.02 8.66 10 9 C8 8.875 8 8.875 6 8 C4.96986723 6.35178756 3.96885372 4.68496298 3 3 C2.01 2.67 1.02 2.34 0 2 C0 1.34 0 0.68 0 0 Z " fill="#E15741" transform="translate(166,17)"/>
<path d="M0 0 C4.75 0.75 4.75 0.75 7 3 C5.73548068 4.31858428 4.46314525 5.62967631 3.1875 6.9375 C2.47980469 7.66839844 1.77210937 8.39929688 1.04296875 9.15234375 C-1 11 -1 11 -4 12 C-2.87204037 7.89100419 -1.66489182 3.92438786 0 0 Z " fill="#2A8DEB" transform="translate(25,245)"/>
<path d="M0 0 C0.66 0 1.32 0 2 0 C3.17580168 3.74719776 4.33904233 7.49817925 5.5 11.25 C5.83386719 12.31347656 6.16773438 13.37695312 6.51171875 14.47265625 C6.98544922 16.00986328 6.98544922 16.00986328 7.46875 17.578125 C7.76201172 18.52075195 8.05527344 19.46337891 8.35742188 20.43457031 C9 23 9 23 9 27 C8.01 26.67 7.02 26.34 6 26 C5.80664062 24.87980469 5.61328125 23.75960937 5.4140625 22.60546875 C5.1514114 21.13274651 4.88837017 19.66009381 4.625 18.1875 C4.49867188 17.44951172 4.37234375 16.71152344 4.2421875 15.95117188 C3.59836518 12.39405354 3.03003944 10.04505916 1 7 C0.60612212 4.67612053 0.26513915 2.34206251 0 0 Z " fill="#7A78A5" transform="translate(231,137)"/>
<path d="M0 0 C2.91704415 1.04714406 3.88969775 1.81190563 5.484375 4.53125 C5.90203125 5.5109375 6.3196875 6.490625 6.75 7.5 C7.39195312 8.96953125 7.39195312 8.96953125 8.046875 10.46875 C9 13 9 13 9 15 C7.68 15.33 6.36 15.66 5 16 C2.96834048 11.66579301 2.47939368 7.71403788 2 3 C1.34 3 0.68 3 0 3 C0 2.01 0 1.02 0 0 Z " fill="#4E85D4" transform="translate(252,206)"/>
<path d="M0 0 C0.66 0.66 1.32 1.32 2 2 C-0.97 4.475 -0.97 4.475 -4 7 C-3.01 8.485 -3.01 8.485 -2 10 C-6.75 11 -6.75 11 -9 11 C-8.09985829 6.69932292 -6.90171303 4.6115108 -3.375 2.125 C-2.26125 1.42375 -1.1475 0.7225 0 0 Z " fill="#D2B23D" transform="translate(124,21)"/>
<path d="M0 0 C7.65606218 -0.19355213 14.66258031 -0.3479743 22 2 C22 2.33 22 2.66 22 3 C13.94484091 4.03335117 7.48957478 4.42546443 0 1 C0 0.67 0 0.34 0 0 Z " fill="#D17142" transform="translate(143,14)"/>
<path d="M0 0 C3.11558244 2.94830284 5.59037969 6.06152037 8.0625 9.5625 C10.21382266 12.60573379 12.25932113 15.4642317 15 18 C14.67 18.66 14.34 19.32 14 20 C9.40842655 16.36285474 6.11023559 12.95333816 3 8 C2.34 7.67 1.68 7.34 1 7 C0.59270772 4.67843403 0.25561323 2.3431213 0 0 Z " fill="#4D80BF" transform="translate(270,238)"/>
<path d="M0 0 C0.66 0 1.32 0 2 0 C0.54768456 6.07331911 -1.79006307 11.62952859 -5 17 C-5.66 17.33 -6.32 17.66 -7 18 C-7.33 18.99 -7.66 19.98 -8 21 C-8.66 21 -9.32 21 -10 21 C-8.27502493 16.3970402 -6.0904129 12.06744176 -3.875 7.6875 C-3.50246094 6.94693359 -3.12992188 6.20636719 -2.74609375 5.44335938 C-1.83255194 3.62798783 -0.91652513 1.81386718 0 0 Z " fill="#3B81BB" transform="translate(42,215)"/>
<path d="M0 0 C3.86979806 3.33968874 4.27722598 7.11504456 5 12 C5.125 15.5625 5.125 15.5625 5 18 C4.67 17.34 4.34 16.68 4 16 C3.34 16 2.68 16 2 16 C1.66259915 14.08404518 1.33023588 12.16720278 1 10.25 C0.814375 9.18265625 0.62875 8.1153125 0.4375 7.015625 C0 4 0 4 0 0 Z " fill="#7584D4" transform="translate(232,144)"/>
<path d="M0 0 C1.5625 1.1875 1.5625 1.1875 3 3 C2.87871602 7.48750726 0.56178082 10.44656208 -2 14 C-2.33 13.01 -2.66 12.02 -3 11 C-2.67 10.34 -2.34 9.68 -2 9 C-2.66 8.67 -3.32 8.34 -4 8 C-3.34 8 -2.68 8 -2 8 C-2 7.01 -2 6.02 -2 5 C-1.34 5 -0.68 5 0 5 C0 3.35 0 1.7 0 0 Z " fill="#7DBD6B" transform="translate(88,76)"/>
<path d="M0 0 C0.33 0 0.66 0 1 0 C0.25 6.75 0.25 6.75 -2 9 C-4.3828125 9.4140625 -4.3828125 9.4140625 -7.125 9.625 C-8.03507812 9.69976562 -8.94515625 9.77453125 -9.8828125 9.8515625 C-10.93082031 9.92503906 -10.93082031 9.92503906 -12 10 C-12.33 9.34 -12.66 8.68 -13 8 C-11.02 8 -9.04 8 -7 8 C-6.67 7.01 -6.34 6.02 -6 5 C-4.68 5.33 -3.36 5.66 -2 6 C-1.855625 5.195625 -1.71125 4.39125 -1.5625 3.5625 C-1 1 -1 1 0 0 Z " fill="#3581EB" transform="translate(295,274)"/>
<path d="M0 0 C1.82560937 2.73841406 2.49824222 4.34837081 3.2890625 7.44921875 C3.50820312 8.29677734 3.72734375 9.14433594 3.953125 10.01757812 C4.17484375 10.89865234 4.3965625 11.77972656 4.625 12.6875 C4.85445312 13.58017578 5.08390625 14.47285156 5.3203125 15.39257812 C5.88533134 17.59379736 6.44501493 19.79623357 7 22 C6.34 22 5.68 22 5 22 C4.13444052 19.90049414 3.28288723 17.7952093 2.4375 15.6875 C1.96183594 14.51574219 1.48617187 13.34398437 0.99609375 12.13671875 C0 9 0 9 1 6 C0.34 5.67 -0.32 5.34 -1 5 C-0.67 3.35 -0.34 1.7 0 0 Z " fill="#896F94" transform="translate(226,115)"/>
<path d="M0 0 C1.32 0.66 2.64 1.32 4 2 C3 4 3 4 0.1875 5 C-0.864375 5.33 -1.91625 5.66 -3 6 C-4.34721283 6.63815344 -5.68747118 7.29325371 -7 8 C-7 5.66666667 -7 3.33333333 -7 1 C-6.401875 1.20625 -5.80375 1.4125 -5.1875 1.625 C-2.71549154 2.30671915 -2.71549154 2.30671915 0 0 Z " fill="#3388F4" transform="translate(127,159)"/>
<path d="M0 0 C1.875 0.5 1.875 0.5 4 2 C5.59836792 5.98713755 6 9.72005913 6 14 C4.35 13.67 2.7 13.34 1 13 C1.33 12.34 1.66 11.68 2 11 C2.039992 9.00039988 2.04346799 6.99952758 2 5 C1.34 5 0.68 5 0 5 C0 3.35 0 1.7 0 0 Z " fill="#6689E0" transform="translate(236,162)"/>
<path d="M0 0 C2.9555377 2.75170751 5.11563315 5.41970299 7 9 C7 9.66 7 10.32 7 11 C5.35 11.33 3.7 11.66 2 12 C1.1031286 9.3093858 0.72140874 7.11102904 0.4375 4.3125 C0.35371094 3.50425781 0.26992187 2.69601563 0.18359375 1.86328125 C0.12300781 1.24839844 0.06242188 0.63351563 0 0 Z " fill="#D5534C" transform="translate(196,42)"/>
<path d="M0 0 C0.66 0 1.32 0 2 0 C2.66 2.97 3.32 5.94 4 9 C3.01 9.66 2.02 10.32 1 11 C0.34 10.34 -0.32 9.68 -1 9 C-0.9765625 6.8359375 -0.9765625 6.8359375 -0.625 4.375 C-0.51414063 3.55773437 -0.40328125 2.74046875 -0.2890625 1.8984375 C-0.19367188 1.27195313 -0.09828125 0.64546875 0 0 Z " fill="#498AF3" transform="translate(248,197)"/>
<path d="M0 0 C0.66 0 1.32 0 2 0 C0.41332422 3.90285767 -2.13350481 6.33520982 -5.125 9.25 C-6.03507812 10.14203125 -6.94515625 11.0340625 -7.8828125 11.953125 C-8.58148438 12.62859375 -9.28015625 13.3040625 -10 14 C-10.99 13.67 -11.98 13.34 -13 13 C-12.37351563 12.45730469 -11.74703125 11.91460937 -11.1015625 11.35546875 C-10.28429688 10.64003906 -9.46703125 9.92460937 -8.625 9.1875 C-7.40683594 8.12595703 -7.40683594 8.12595703 -6.1640625 7.04296875 C-3.83816812 5.00018747 -3.83816812 5.00018747 -2 2 C-1.34 2 -0.68 2 0 2 C0 1.34 0 0.68 0 0 Z " fill="#3A7DC3" transform="translate(57,253)"/>
<path d="M0 0 C0.99 0 1.98 0 3 0 C3 0.66 3 1.32 3 2 C3.66 2.33 4.32 2.66 5 3 C5 4.98 5 6.96 5 9 C3.125 8.875 3.125 8.875 1 8 C-0.3125 5.0625 -0.3125 5.0625 -1 2 C-0.67 1.34 -0.34 0.68 0 0 Z " fill="#3B89F6" transform="translate(199,181)"/>
<path d="M0 0 C0.99 0.33 1.98 0.66 3 1 C3.66 0.67 4.32 0.34 5 0 C4.5205537 4.21912747 3.83374881 6.79663178 1 10 C0.67 8.02 0.34 6.04 0 4 C-0.99 3.67 -1.98 3.34 -3 3 C-2.01 2.01 -1.02 1.02 0 0 Z " fill="#2E88F6" transform="translate(87,196)"/>
<path d="M0 0 C0.99 0.33 1.98 0.66 3 1 C3.66 0.67 4.32 0.34 5 0 C4.56476403 4.93267427 2.22491129 7.38180684 -1 11 C-1.66 11.99 -2.32 12.98 -3 14 C-2.125 8.125 -2.125 8.125 -1 7 C-0.63239269 4.67182036 -0.29758419 2.3381615 0 0 Z " fill="#389EB8" transform="translate(67,146)"/>
<path d="M0 0 C0.66 0 1.32 0 2 0 C2.33 0.99 2.66 1.98 3 3 C3.99 3 4.98 3 6 3 C6.33 3.99 6.66 4.98 7 6 C5 8 5 8 2.375 8.125 C1.59125 8.08375 0.8075 8.0425 0 8 C0 5.36 0 2.72 0 0 Z " fill="#B16591" transform="translate(216,104)"/>
<path d="M0 0 C0.99 0.99 1.98 1.98 3 3 C1.66511872 6.59391114 0.03977277 9.75490696 -2 13 C-3.18771723 9.57056481 -2.80226223 7.62215325 -1.5625 4.25 C-1.27503906 3.45078125 -0.98757812 2.6515625 -0.69140625 1.828125 C-0.46324219 1.22484375 -0.23507813 0.6215625 0 0 Z " fill="#45A4AC" transform="translate(71,133)"/>
<path d="M0 0 C0.66 0.33 1.32 0.66 2 1 C2 2.32 2 3.64 2 5 C2.66 5.33 3.32 5.66 4 6 C3.625 8.9375 3.625 8.9375 3 12 C2.01 12.495 2.01 12.495 1 13 C1 10.69 1 8.38 1 6 C0.34 6 -0.32 6 -1 6 C-1.042721 4.33388095 -1.04063832 2.66617115 -1 1 C-0.67 0.67 -0.34 0.34 0 0 Z " fill="#BD6082" transform="translate(217,95)"/>
<path d="M0 0 C2.954889 3.5458668 5.45934985 7.63781033 7 12 C6.67 12.99 6.34 13.98 6 15 C3.22165316 13.61082658 3.00357014 12.04236447 1.875 9.1875 C1.52179688 8.31480469 1.16859375 7.44210938 0.8046875 6.54296875 C0 4 0 4 0 0 Z " fill="#CC575A" transform="translate(203,53)"/>
<path d="M0 0 C0.33 0.99 0.66 1.98 1 3 C0.01 3.495 0.01 3.495 -1 4 C-0.67 2.68 -0.34 1.36 0 0 Z M-3 3 C-0.8614515 5.1385485 -0.57344937 6.13275314 0 9 C-0.99 9.66 -1.98 10.32 -3 11 C-3.66 10.34 -4.32 9.68 -5 9 C-5.99 9.495 -5.99 9.495 -7 10 C-5.79618552 7.50638429 -4.54571278 5.31856917 -3 3 Z " fill="#BFBB3A" transform="translate(113,32)"/>
<path d="M0 0 C0.66 0 1.32 0 2 0 C2.268125 1.134375 2.53625 2.26875 2.8125 3.4375 C3.204375 4.613125 3.59625 5.78875 4 7 C4.99 7.33 5.98 7.66 7 8 C7.33 9.98 7.66 11.96 8 14 C4.084859 10.64416485 1.9204226 6.71933638 0 2 C0 1.34 0 0.68 0 0 Z " fill="#417DC6" transform="translate(196,182)"/>
<path d="M0 0 C3.80881639 1.44472346 5.29742886 3.32603071 7 7 C6.67 7.99 6.34 8.98 6 10 C3.53199953 8.84826645 1.95216435 7.95216435 0 6 C0.33 5.67 0.66 5.34 1 5 C0.71395102 3.32457024 0.38218767 1.65614657 0 0 Z " fill="#518AF4" transform="translate(240,182)"/>
<path d="M0 0 C0.99 0 1.98 0 3 0 C3.75 3.25 3.75 3.25 4 7 C2.0625 9.4375 2.0625 9.4375 0 11 C0 7.37 0 3.74 0 0 Z " fill="#9672AD" transform="translate(224,121)"/>
<path d="M0 0 C3.6578722 4.19977919 6.79365864 8.87201939 9 14 C8.67 14.66 8.34 15.32 8 16 C5.550167 13.75132631 3.93845505 11.4579695 2.3125 8.5625 C1.87550781 7.80066406 1.43851562 7.03882813 0.98828125 6.25390625 C0 4 0 4 0 0 Z " fill="#517EC0" transform="translate(261,222)"/>
<path d="M0 0 C1.31354934 3.94064801 0.30975532 5.3016095 -1.3125 9.0625 C-1.98732422 10.65771484 -1.98732422 10.65771484 -2.67578125 12.28515625 C-4 15 -4 15 -6 17 C-3.37359551 3.37359551 -3.37359551 3.37359551 0 0 Z " fill="#3C85AE" transform="translate(60,169)"/>
<path d="M0 0 C0.99 0.33 1.98 0.66 3 1 C0.94870558 3.13911742 -1.15695031 4.95737463 -3.5625 6.6875 C-4.46162109 7.34298828 -4.46162109 7.34298828 -5.37890625 8.01171875 C-7 9 -7 9 -9 9 C-8.875 7.1875 -8.875 7.1875 -8 5 C-5.0625 3.375 -5.0625 3.375 -2 2 C-1.34 1.34 -0.68 0.68 0 0 Z " fill="#3D7CC7" transform="translate(125,163)"/>
<path d="M0 0 C0.89203125 0.19464844 1.7840625 0.38929688 2.703125 0.58984375 C3.37859375 0.74582031 4.0540625 0.90179688 4.75 1.0625 C4.75 1.3925 4.75 1.7225 4.75 2.0625 C-0.53 2.0625 -5.81 2.0625 -11.25 2.0625 C-7.69101477 -1.49648523 -4.7127233 -1.05416179 0 0 Z " fill="#3483EC" transform="translate(155.25,156.9375)"/>
<path d="M0 0 C0 3 0 3 -2 6 C-2.66 6 -3.32 6 -4 6 C-4.66 7.32 -5.32 8.64 -6 10 C-7.125 4.25 -7.125 4.25 -6 2 C-4.34178227 1.62690101 -2.67422986 1.29299023 -1 1 C-0.67 0.67 -0.34 0.34 0 0 Z " fill="#3186F2" transform="translate(103,182)"/>
<path d="M0 0 C2.475 0.99 2.475 0.99 5 2 C4.75 3.875 4.75 3.875 4 6 C2.125 7.3125 2.125 7.3125 0 8 C-0.99 7.67 -1.98 7.34 -3 7 C-2.2575 6.38125 -2.2575 6.38125 -1.5 5.75 C0.43386092 3.87797662 0.43386092 3.87797662 0 0 Z " fill="#3184E7" transform="translate(112,167)"/>
<path d="M0 0 C0.33 0 0.66 0 1 0 C0.66009167 5.37992836 0.31442207 9.53273547 -3 14 C-4.44133303 11.11733394 -3.49327345 9.49238868 -2.625 6.4375 C-2.34914063 5.44621094 -2.07328125 4.45492187 -1.7890625 3.43359375 C-1 1 -1 1 0 0 Z " fill="#569791" transform="translate(72,124)"/>
<path d="M0 0 C0.99 0 1.98 0 3 0 C1.14285714 8.71428571 1.14285714 8.71428571 -2 11 C-3 9 -3 9 -2.44140625 6.8359375 C-2.15136719 6.02382812 -1.86132812 5.21171875 -1.5625 4.375 C-1.27503906 3.55773437 -0.98757812 2.74046875 -0.69140625 1.8984375 C-0.46324219 1.27195312 -0.23507813 0.64546875 0 0 Z " fill="#7FAD78" transform="translate(83,85)"/>
<path d="M0 0 C2.64 0 5.28 0 8 0 C8 1.65 8 3.3 8 5 C4.62537285 4.45276317 2.91765 3.9451 0 2 C0 1.34 0 0.68 0 0 Z " fill="#3485F1" transform="translate(273,278)"/>
<path d="M0 0 C2.1875 1.4375 2.1875 1.4375 4 3 C3.01 4.485 3.01 4.485 2 6 C0.68 5.67 -0.64 5.34 -2 5 C-2.33 3.68 -2.66 2.36 -3 1 C-2.01 0.67 -1.02 0.34 0 0 Z " fill="#3486FA" transform="translate(270,271)"/>
<path d="M0 0 C9.59453303 2.70615034 9.59453303 2.70615034 13 7 C11.58208592 6.54554036 10.16571954 6.08625056 8.75 5.625 C7.96109375 5.36976562 7.1721875 5.11453125 6.359375 4.8515625 C4.13372042 4.04826333 2.09068328 3.10288338 0 2 C0 1.34 0 0.68 0 0 Z " fill="#C75E46" transform="translate(166,17)"/>
<path d="M0 0 C0.33 0.66 0.66 1.32 1 2 C-1.80627778 6.74908547 -4.25091453 9.19372222 -9 12 C-7.4722133 8.56247993 -5.49818944 5.81046312 -3 3 C-2.34 3 -1.68 3 -1 3 C-0.67 2.01 -0.34 1.02 0 0 Z " fill="#4080BC" transform="translate(16,256)"/>
<path d="M0 0 C2.0625 0.4375 2.0625 0.4375 4 1 C4 1.66 4 2.32 4 3 C4.66 3.33 5.32 3.66 6 4 C4.02 4.66 2.04 5.32 0 6 C-0.38218767 4.34385343 -0.71395102 2.67542976 -1 1 C-0.67 0.67 -0.34 0.34 0 0 Z " fill="#328AF1" transform="translate(15,260)"/>
<path d="M0 0 C5.29500913 1.36157378 7.23745533 4.60343955 10 9 C9.67 9.66 9.34 10.32 9 11 C7.49703315 9.35687553 5.99769719 7.71042916 4.5 6.0625 C3.6646875 5.14597656 2.829375 4.22945312 1.96875 3.28515625 C0 1 0 1 0 0 Z " fill="#417ABF" transform="translate(238,250)"/>
<path d="M0 0 C0.66 0 1.32 0 2 0 C2.66 1.98 3.32 3.96 4 6 C2.35 6 0.7 6 -1 6 C-1 2 -1 2 0 0 Z " fill="#EF5046" transform="translate(194,42)"/>
<path d="M0 0 C0.33 0.66 0.66 1.32 1 2 C0.54625 2.433125 0.0925 2.86625 -0.375 3.3125 C-2.20024334 5.10798342 -2.20024334 5.10798342 -4 8 C-5.30518475 9.03647024 -6.63461347 10.04422943 -8 11 C-7.43040847 7.37386801 -6.07625466 5.74482259 -3.4375 3.25 C-2.79683594 2.63640625 -2.15617187 2.0228125 -1.49609375 1.390625 C-1.00238281 0.93171875 -0.50867188 0.4728125 0 0 Z " fill="#C2B75A" transform="translate(115,28)"/>
<path d="M0 0 C-0.99 0.495 -0.99 0.495 -2 1 C-3.13350534 3.01669827 -3.13350534 3.01669827 -4 5 C-4.99 5 -5.98 5 -7 5 C-7.33 3.68 -7.66 2.36 -8 1 C-5.29120665 -0.35439668 -2.99066732 -0.06501451 0 0 Z " fill="#DDAA36" transform="translate(133,19)"/>
<path d="M0 0 C1.32 0 2.64 0 4 0 C3.67 2.31 3.34 4.62 3 7 C1.68 6.67 0.36 6.34 -1 6 C-0.67 4.02 -0.34 2.04 0 0 Z " fill="#F06B36" transform="translate(160,17)"/>
<path d="M0 0 C0 3.30941204 -0.40339294 5.11090151 -2 8 C-4.625 8.8125 -4.625 8.8125 -7 9 C-6.02180976 7.68677212 -5.0424189 6.37443848 -4.0625 5.0625 C-3.51722656 4.33160156 -2.97195312 3.60070312 -2.41015625 2.84765625 C-1 1 -1 1 0 0 Z " fill="#3C82C0" transform="translate(24,247)"/>
<path d="M0 0 C0.66 0 1.32 0 2 0 C0.35821735 4.77609498 -2.26546702 8.79382904 -5 13 C-6 10 -6 10 -4.85546875 7.51953125 C-4.30503906 6.62621094 -3.75460938 5.73289063 -3.1875 4.8125 C-2.37345703 3.46091797 -2.37345703 3.46091797 -1.54296875 2.08203125 C-1.03378906 1.39496094 -0.52460937 0.70789063 0 0 Z " fill="#457AB3" transform="translate(96,194)"/>
<path d="M0 0 C1.9375 0.5 1.9375 0.5 4 2 C4.68790422 4.69658452 4.81946464 7.2017019 5 10 C2.08772731 6.71195019 0.50298788 4.40114397 0 0 Z " fill="#3A86E8" transform="translate(204,192)"/>
<path d="M0 0 C-1 3 -1 3 -4 5 C-4.72965366 7.56282742 -4.72965366 7.56282742 -5 10 C-5.66 9.67 -6.32 9.34 -7 9 C-6.75 5.625 -6.75 5.625 -6 2 C-3.83076342 0.3905664 -2.68076871 0 0 0 Z " fill="#5CA994" transform="translate(79,115)"/>
<path d="M0 0 C0.66 0.33 1.32 0.66 2 1 C2.6328125 3.06640625 2.6328125 3.06640625 3.125 5.5625 C3.29257813 6.38878906 3.46015625 7.21507813 3.6328125 8.06640625 C3.75398437 8.70449219 3.87515625 9.34257813 4 10 C2.05078125 9.15234375 2.05078125 9.15234375 0 8 C-1.09809194 4.70572419 -1.11196276 3.33588828 0 0 Z " fill="#CD566D" transform="translate(214,84)"/>
<path d="M0 0 C0.66 0 1.32 0 2 0 C3.31626692 3.61973402 4 6.09567131 4 10 C3.01 9.67 2.02 9.34 1 9 C0.67 6.03 0.34 3.06 0 0 Z " fill="#6A7EB6" transform="translate(236,154)"/>
<path d="M0 0 C0.66 0.33 1.32 0.66 2 1 C1.34 2.32 0.68 3.64 0 5 C-0.66 5 -1.32 5 -2 5 C-2.33 5.99 -2.66 6.98 -3 8 C-3.66 7.01 -4.32 6.02 -5 5 C-3.768606 2.53721199 -2.21935077 1.57502313 0 0 Z " fill="#3386ED" transform="translate(77,223)"/>
<path d="M0 0 C0.66 0 1.32 0 2 0 C2 0.66 2 1.32 2 2 C2.66 2.33 3.32 2.66 4 3 C3.67 4.32 3.34 5.64 3 7 C2.34 6.34 1.68 5.68 1 5 C0.01 5.495 0.01 5.495 -1 6 C-1.33 5.01 -1.66 4.02 -2 3 C-1.34 2.01 -0.68 1.02 0 0 Z " fill="#388CFB" transform="translate(230,225)"/>
<path d="M0 0 C1.98 0 3.96 0 6 0 C5.67 0.99 5.34 1.98 5 3 C4.34 3 3.68 3 3 3 C2.67 3.66 2.34 4.32 2 5 C0.68 4.01 -0.64 3.02 -2 2 C-1.34 2 -0.68 2 0 2 C0 1.34 0 0.68 0 0 Z " fill="#3188F2" transform="translate(91,192)"/>
<path d="M0 0 C0.66 0 1.32 0 2 0 C1.67 2.97 1.34 5.94 1 9 C-0.32 9 -1.64 9 -3 9 C-2.01 6.03 -1.02 3.06 0 0 Z " fill="#3298CD" transform="translate(62,165)"/>
<path d="M0 0 C0.33 0 0.66 0 1 0 C1.33 2.64 1.66 5.28 2 8 C0.68 7.67 -0.64 7.34 -2 7 C-2.125 4.625 -2.125 4.625 -2 2 C-1.34 1.34 -0.68 0.68 0 0 Z " fill="#837AC1" transform="translate(230,134)"/>
<path d="M0 0 C0.75 1.625 0.75 1.625 1 4 C-0.8125 7.25 -0.8125 7.25 -3 10 C-3.66 10 -4.32 10 -5 10 C-3.66511872 6.40608886 -2.03977277 3.24509304 0 0 Z " fill="#3A7FBC" transform="translate(31,236)"/>
<path d="M0 0 C1.65 0 3.3 0 5 0 C3.125 4.75 3.125 4.75 2 7 C1.34 6.67 0.68 6.34 0 6 C0 4.02 0 2.04 0 0 Z " fill="#3286EE" transform="translate(104,175)"/>
<path d="M0 0 C0.33 0 0.66 0 1 0 C1 2.31 1 4.62 1 7 C1.66 7.33 2.32 7.66 3 8 C1.35 8.66 -0.3 9.32 -2 10 C-1.34 6.7 -0.68 3.4 0 0 Z " fill="#6AA48D" transform="translate(76,107)"/>
<path d="M0 0 C0.33 0.99 0.66 1.98 1 3 C0.67 3.66 0.34 4.32 0 5 C-0.66 5 -1.32 5 -2 5 C-2.33 5.99 -2.66 6.98 -3 8 C-3.93423645 4.98968256 -4.04449911 4.13349732 -3 1 C-2.01 1.33 -1.02 1.66 0 2 C0 1.34 0 0.68 0 0 Z " fill="#3389F1" transform="translate(72,231)"/>
<path d="M0 0 C4.31392226 0.4793247 6.16569547 1.7457985 9 5 C4.68607774 4.5206753 2.83430453 3.2542015 0 0 Z " fill="#3C72BE" transform="translate(268,278)"/>
<path d="M0 0 C0.33 0.99 0.66 1.98 1 3 C-0.375 5.6875 -0.375 5.6875 -2 8 C-2.33 8 -2.66 8 -3 8 C-3.1875 5.125 -3.1875 5.125 -3 2 C-2.01 1.34 -1.02 0.68 0 0 Z " fill="#95C260" transform="translate(95,62)"/>
<path d="M0 0 C0.66 0.33 1.32 0.66 2 1 C0.02 3.31 -1.96 5.62 -4 8 C-4.33 7.34 -4.66 6.68 -5 6 C-3.35 4.02 -1.7 2.04 0 0 Z " fill="#3F7CBD" transform="translate(64,245)"/>
<path d="M0 0 C0.99 0 1.98 0 3 0 C3 1.65 3 3.3 3 5 C1.68 5 0.36 5 -1 5 C-0.67 3.35 -0.34 1.7 0 0 Z " fill="#2B8CEB" transform="translate(43,219)"/>
<path d="M0 0 C2.96175123 0.61277612 4.38058783 1.25372522 7 3 C4.69 3.33 2.38 3.66 0 4 C0 2.68 0 1.36 0 0 Z " fill="#EB9E22" transform="translate(131,20)"/>
</svg>
